<?xml version="1.0" encoding="UTF-8" standalone="no"?>
<!-- Created with Inkscape (http://www.inkscape.org/) -->

<svg
   width="180.34378mm"
   height="188.41112mm"
   viewBox="0 0 180.34379 188.41112"
   version="1.1"
   id="svg1"
   xml:space="preserve"
   xmlns="http://www.w3.org/2000/svg"
   xmlns:svg="http://www.w3.org/2000/svg"><defs
     id="defs1" /><g
     id="layer1"
     transform="translate(-19.4729,-48.227875)"><rect
       style="fill:#f8f3ed;fill-opacity:1;stroke-width:0.303162"
       id="rect5"
       width="180.34378"
       height="188.4111"
       x="19.4729"
       y="48.227875" /><path
       style="fill:#3f635b;stroke:none"
       d="m 159.50478,149.44936 c -3.98747,21.1635 -20.25119,41.30655 -43.12708,43.12708 v 20.10833 c 0,2.38546 -0.68069,5.91006 1.0026,7.85033 1.11997,1.29096 2.96016,1.40221 4.55365,1.40989 3.26301,0.0157 6.52652,2e-4 9.78958,2e-4 h 37.30625 c 3.43201,0 10.84386,1.38827 13.38962,-1.37947 1.26183,-1.37184 1.16246,-3.2418 1.16246,-4.97053 v -9.525 -39.95208 -10.31875 c 0,-1.84981 0.0854,-3.83838 -1.35823,-5.23512 -1.68236,-1.62768 -4.43689,-1.11488 -6.57927,-1.11488 z"
       id="path5" /><path
       style="fill:#3f635b;stroke:none"
       d="m 103.14853,192.57644 c -14.728536,-1.87116 -27.90144,-10.85496 -35.799391,-23.28333 -2.824666,-4.44495 -4.821491,-9.43732 -6.035395,-14.55209 -0.279319,-1.17691 -0.313894,-4.80799 -1.617311,-5.20756 -1.512423,-0.46363 -3.654492,-0.0841 -5.231237,-0.0841 H 42.82353 c -2.053133,0 -4.231738,-0.32232 -5.760606,1.35069 -1.254526,1.37278 -1.11856,3.27031 -1.11856,4.99931 v 10.84791 38.36458 9.78959 c 0,1.76859 -0.231123,3.72399 0.792321,5.28023 2.272596,3.4557 10.951624,1.86352 14.553511,1.86352 h 37.306248 c 3.468934,0 10.846205,1.38189 13.437196,-1.3517 1.8161,-1.91606 1.11489,-5.47718 1.11489,-7.90872 v -20.10833"
       id="path4" /><path
       style="fill:#68958e;fill-opacity:1;stroke:none"
       d="m 106.58811,106.69914 c -5.8168,0.77315 -11.162553,2.29786 -16.139582,5.53523 -4.091005,2.66104 -7.78541,6.10011 -10.428175,10.22749 -12.939301,20.20819 -3.879075,47.81885 19.688591,54.84264 5.066436,1.50996 10.658236,1.62868 15.875006,0.94239 4.73207,-0.62254 9.50586,-2.59957 13.49375,-5.16816 10.76417,-6.93319 17.22109,-18.97935 16.65833,-31.83146 -0.85097,-19.43377 -19.20821,-37.1984 -39.14792,-34.54813"
       id="path3" /><path
       style="fill:#3f635b;stroke:none"
       d="m 116.3777,93.093107 c 16.25561,3.062781 29.95435,12.128553 37.75068,26.987503 2.6662,5.08147 4.33393,10.07968 5.3764,15.875 5.2391,-0.33735 10.62054,0 15.875,0 2.30096,0 5.24268,0.38402 7.00288,-1.4497 2.66155,-2.77275 1.1992,-10.55262 1.1992,-14.16072 V 80.657691 70.338942 c 0,-1.81423 0.16298,-3.745912 -1.1992,-5.164882 -2.48228,-2.585791 -10.0015,-1.185118 -13.35288,-1.185118 h -37.30625 -9.78958 c -1.741,0 -3.41569,-0.10135 -4.65818,1.350677 -1.61625,1.888789 -0.89807,5.586851 -0.89807,7.909739 v 19.843749"
       id="path2" /><path
       style="fill:#3f635b;stroke:none"
       d="m 38.854982,64.136543 c -3.004556,0.792119 -2.910618,3.982395 -2.910618,6.466982 v 18.785416 32.543749 c 0,3.31335 -1.213193,9.66138 0.965445,12.38642 1.378049,1.72367 3.661206,1.6365 5.649138,1.6365 h 11.641666 c 1.681123,0 3.901263,0.38316 5.520932,-0.0841 1.754471,-0.50615 2.298471,-6.7195 2.857739,-8.38256 2.485176,-7.38995 6.40384,-14.15724 11.774579,-19.83333 5.058646,-5.34625 11.848009,-9.493303 18.740498,-11.997317 2.317785,-0.842035 4.732285,-1.469662 7.143749,-1.980273 0.79325,-0.167965 2.33056,-0.134456 2.75077,-0.964234 0.75723,-1.49529 0.15965,-4.572556 0.15965,-6.235262 V 70.868108 c 0,-2.281692 0.41787,-4.992589 -1.85617,-6.387562 -1.381652,-0.847558 -3.471536,-0.491604 -5.022999,-0.491604 h -11.1125 -31.485415 c -4.533896,0 -10.43448,-1.007658 -14.816464,0.147601"
       id="path1" /></g></svg>
